<svg id="Grupo_15949" data-name="Grupo 15949" xmlns="http://www.w3.org/2000/svg" width="120.921" height="100" viewBox="0 0 120.921 100">
  <path id="Trazado_43038" data-name="Trazado 43038" d="M234.482,6.585A7.04,7.04,0,0,0,227,.015c-.1.015-11.112.648-17.873,1.155-7.169.534-14.226,2.492-17.282,13.084-.453,1.565-.861,3.106-1.2,4.484l-6.184-1.569a12.313,12.313,0,0,0-6.07,0l-6.274,1.593c-.346-1.384-.753-2.932-1.211-4.505-3.056-10.592-10.111-12.55-17.282-13.084C146.862.663,135.862.017,135.751.017a7.04,7.04,0,0,0-.816,14.056c.112.015,11,.648,17.647,1.142q4.042.3,4.8,2.943c.4,1.41.771,2.816,1.082,4.069l-9.824,2.494a12.409,12.409,0,0,0-9.126,14.056L145.8,75.3a12.334,12.334,0,0,0,5.69,8.422l23.464,14.434a12.309,12.309,0,0,0,12.942.015L211.36,83.718a12.376,12.376,0,0,0,5.69-8.422l6.282-36.52a12.411,12.411,0,0,0-9.126-14.056L204.288,22.2c.311-1.245.678-2.64,1.082-4.046q.76-2.649,4.8-2.943c6.647-.507,17.536-1.142,17.647-1.142.032,0,.062,0,.094-.006a7.04,7.04,0,0,0,6.57-7.48ZM203.3,72.126,181.416,85.6,159.53,72.126l-5.872-34.155,27.761-7.042,27.759,7.042L203.3,72.126Z" transform="translate(-120.96 0)" fill="#fff"/>
  <path id="Trazado_43039" data-name="Trazado 43039" d="M209.947,63.324a2.13,2.13,0,0,0-.206-.94c-.107-.225-2.743-5.6-11.039-10.854A60.455,60.455,0,0,0,181.8,44.415a105.568,105.568,0,0,0-25.273-3.168V41.23h-4.286v.017a105.663,105.663,0,0,0-25.273,3.168,60.482,60.482,0,0,0-16.907,7.115c-8.3,5.254-10.931,10.629-11.039,10.854a2.129,2.129,0,0,0-.206.94c-5.673.3-4.853,5.634-4.853,5.634s4.007,18.542,5.224,22.2c2.17,6.521,8.852,6.521,8.852,6.521H112.3l-5.911-34.369h-2.932a30.211,30.211,0,0,1,9.234-8.366c6.931-4.3,19.787-9.422,41.684-9.422h.006c21.9,0,34.754,5.123,41.684,9.422a30.182,30.182,0,0,1,9.234,8.366h-2.932l-5.641,32.8c-.3.247-.6.485-.906.708-10.584,7.768-33.487,7.864-33.717,7.864h-.112a3.432,3.432,0,0,0-3.323-2.576h-8.585a3.433,3.433,0,0,0-3.434,3.434v.429a3.433,3.433,0,0,0,3.434,3.434h8.585a3.434,3.434,0,0,0,3.323-2.576h.112c.968,0,23.835-.094,34.985-8.281.371-.273.74-.564,1.1-.865h2.531s6.682,0,8.851-6.521c1.217-3.657,5.224-22.2,5.224-22.2s.82-5.329-4.853-5.634Z" transform="translate(-93.918 -32.381)" fill="#fff"/>
</svg>
